{
    "accessors" : [
        {
            "bufferView" : 0,
            "componentType" : 5123,
            "count" : 13530,
            "max" : [
                2548
            ],
            "min" : [
                0
            ],
            "type" : "SCALAR"
        },
        {
            "bufferView" : 1,
            "componentType" : 5126,
            "count" : 2549,
            "max" : [
                0.054450009018182755,
                0.05445004627108574,
                -0.0012441575527191162
            ],
            "min" : [
                -0.054450009018182755,
                -0.05445000156760216,
                -0.2616848349571228
            ],
            "type" : "VEC3"
        },
        {
            "bufferView" : 2,
            "componentType" : 5126,
            "count" : 2549,
            "max" : [
                1.0,
                1.0,
                0.999969482421875
            ],
            "min" : [
                -1.0,
                -1.0,
                -1.0
            ],
            "type" : "VEC3"
        },
        {
            "bufferView" : 3,
            "componentType" : 5126,
            "count" : 2549,
            "max" : [
                1.0,
                1.0,
                0.887436032295227,
                1.0
            ],
            "min" : [
                -1.0,
                -1.0,
                -0.8874360918998718,
                -1.0
            ],
            "type" : "VEC4"
        },
        {
            "bufferView" : 4,
            "componentType" : 5126,
            "count" : 2549,
            "max" : [
                0.9884517192840576,
                1.9737330079078674
            ],
            "min" : [
                0.01567820832133293,
                1.0313312411308289
            ],
            "type" : "VEC2"
        }
    ],
    "asset" : {
        "generator" : "Khronos Blender glTF 2.0 exporter",
        "version" : "2.0"
    },
    "bufferViews" : [
        {
            "buffer" : 0,
            "byteLength" : 27060,
            "byteOffset" : 0,
            "target" : 34963
        },
        {
            "buffer" : 0,
            "byteLength" : 30588,
            "byteOffset" : 27060,
            "target" : 34962
        },
        {
            "buffer" : 0,
            "byteLength" : 30588,
            "byteOffset" : 57648,
            "target" : 34962
        },
        {
            "buffer" : 0,
            "byteLength" : 40784,
            "byteOffset" : 88236,
            "target" : 34962
        },
        {
            "buffer" : 0,
            "byteLength" : 20392,
            "byteOffset" : 129020,
            "target" : 34962
        }
    ],
    "buffers" : [
        {
            "byteLength" : 149412,
            "uri" : "WaterBottle.bin"
        }
    ],
    "meshes" : [
        {
            "name" : "WaterBottle",
            "primitives" : [
                {
                    "attributes" : {
                        "NORMAL" : 2,
                        "POSITION" : 1,
                        "TANGENT" : 3,
                        "TEXCOORD_0" : 4
                    },
                    "indices" : 0
                }
            ]
        }
    ],
    "nodes" : [
        {
            "children" : [
                1
            ],
            "name" : "SceneRoot",
            "rotation" : [
                -3.090862321641907e-08,
                0.7071067094802856,
                -0.7071068286895752,
                -3.0908616110991716e-08
            ]
        },
        {
            "mesh" : 0,
            "name" : "WaterBottle",
            "rotation" : [
                2.2572324578119816e-22,
                0.0,
                -1.0,
                0.0
            ],
            "scale" : [
                3.7525289058685303,
                3.7525289058685303,
                3.7525289058685303
            ],
            "translation" : [
                -2.117582368135751e-22,
                0.0,
                -0.0
            ]
        }
    ],
    "scene" : 0,
    "scenes" : [
        {
            "name" : "Scene",
            "nodes" : [
                0
            ]
        }
    ]
}
